<svg width="153" height="45" viewBox="0 0 153 45" fill="none" xmlns="http://www.w3.org/2000/svg">
<path d="M79.6093 24.5437C79.6093 25.0352 79.4391 25.449 79.0984 25.7852C78.7577 26.0956 78.3254 26.2508 77.8014 26.2508H62.8665C63.1548 28.0613 63.9801 29.5226 65.3426 30.6348C66.7313 31.747 68.4213 32.3031 70.4126 32.3031C71.1986 32.3031 72.0109 32.1608 72.8493 31.8763C73.714 31.5918 74.4214 31.2427 74.9717 30.8288C75.3384 30.5443 75.7708 30.402 76.2686 30.402C76.7665 30.402 77.1595 30.5313 77.4477 30.79C77.9193 31.178 78.1551 31.6176 78.1551 32.1091C78.1551 32.5746 77.9456 32.9626 77.5263 33.273C76.6354 33.9713 75.5219 34.5404 74.1856 34.98C72.8755 35.4197 71.6179 35.6396 70.4126 35.6396C68.2641 35.6396 66.3382 35.1869 64.6351 34.2817C62.9321 33.3506 61.5958 32.0703 60.6263 30.4408C59.6831 28.8114 59.2114 26.962 59.2114 24.8929C59.2114 22.8237 59.6569 20.9744 60.5477 19.345C61.4648 17.6896 62.7224 16.4094 64.3207 15.5041C65.9452 14.573 67.7793 14.1074 69.8231 14.1074C71.8406 14.1074 73.583 14.5471 75.0503 15.4265C76.5175 16.3059 77.6442 17.5345 78.4303 19.1122C79.2163 20.6899 79.6093 22.5004 79.6093 24.5437ZM69.8231 17.4439C67.9103 17.4439 66.3514 17.9612 65.1461 18.9958C63.967 20.0304 63.2203 21.4141 62.9058 23.147H75.9935C75.7577 21.4141 75.1027 20.0304 74.0284 18.9958C72.9541 17.9612 71.5524 17.4439 69.8231 17.4439ZM94.8807 14.1074C96.8983 14.1074 98.7193 14.5859 100.344 15.5429C101.994 16.474 103.291 17.7672 104.235 19.4226C105.204 21.052 105.689 22.8755 105.689 24.8929V33.5446C105.689 34.1136 105.492 34.5921 105.099 34.98C104.733 35.3421 104.261 35.5232 103.684 35.5232C103.108 35.5232 102.623 35.3421 102.23 34.98C101.863 34.5921 101.68 34.1136 101.68 33.5446V32.1091C100.763 33.2213 99.6495 34.0877 98.3393 34.7085C97.0293 35.3292 95.6144 35.6396 94.0947 35.6396C92.2081 35.6396 90.492 35.174 88.946 34.2429C87.4265 33.3118 86.2211 32.0315 85.3302 30.402C84.4656 28.7467 84.0333 26.9103 84.0333 24.8929C84.0333 22.8755 84.5049 21.052 85.4481 19.4226C86.3914 17.7672 87.6884 16.474 89.3391 15.5429C91.016 14.5859 92.8632 14.1074 94.8807 14.1074ZM94.8807 32.1479C96.1909 32.1479 97.37 31.8375 98.4179 31.2168C99.4923 30.5701 100.331 29.7037 100.933 28.6174C101.536 27.5052 101.837 26.2637 101.837 24.8929C101.837 23.5221 101.536 22.2806 100.933 21.1684C100.331 20.0562 99.4923 19.1898 98.4179 18.569C97.37 17.9224 96.1909 17.5991 94.8807 17.5991C93.5707 17.5991 92.3786 17.9224 91.3042 18.569C90.2562 19.1898 89.4177 20.0562 88.7888 21.1684C88.1863 22.2806 87.8849 23.5221 87.8849 24.8929C87.8849 26.2637 88.1863 27.5052 88.7888 28.6174C89.4177 29.7037 90.2562 30.5701 91.3042 31.2168C92.3786 31.8375 93.5707 32.1479 94.8807 32.1479ZM120.655 35.6396C118.874 35.6396 117.197 35.368 115.625 34.8248C114.053 34.2817 112.821 33.5705 111.93 32.691C111.59 32.3547 111.419 31.9539 111.419 31.4883C111.419 30.8676 111.681 30.3632 112.205 29.9753C112.703 29.6132 113.162 29.4321 113.581 29.4321C114.105 29.4321 114.603 29.6649 115.075 30.1304C115.572 30.6736 116.319 31.152 117.315 31.5659C118.31 31.9539 119.372 32.1479 120.498 32.1479C121.992 32.1479 123.145 31.9022 123.957 31.4107C124.795 30.9193 125.215 30.2597 125.215 29.4321C125.215 28.6303 124.808 27.9708 123.996 27.4535C123.184 26.9103 121.808 26.4577 119.869 26.0956C114.839 25.1386 112.323 23.0953 112.323 19.9657C112.323 18.6984 112.703 17.625 113.463 16.7456C114.223 15.8662 115.219 15.2067 116.45 14.767C117.682 14.3273 118.992 14.1074 120.38 14.1074C122.083 14.1074 123.603 14.379 124.939 14.9222C126.302 15.4653 127.376 16.2154 128.162 17.1724C128.503 17.5862 128.673 18 128.673 18.4139C128.673 18.8535 128.45 19.2545 128.005 19.6165C127.717 19.8235 127.35 19.9269 126.905 19.9269C126.223 19.9269 125.608 19.6812 125.057 19.1898C124.402 18.5949 123.708 18.1811 122.974 17.9483C122.241 17.6896 121.35 17.5603 120.302 17.5603C119.096 17.5603 118.101 17.7672 117.315 18.1811C116.555 18.569 116.175 19.1251 116.175 19.8493C116.175 20.3666 116.306 20.8063 116.568 21.1684C116.83 21.5047 117.328 21.828 118.061 22.1383C118.795 22.4228 119.856 22.7074 121.245 22.9919C124.101 23.5609 126.118 24.3497 127.298 25.3585C128.503 26.3672 129.105 27.6733 129.105 29.2769C129.105 30.4667 128.778 31.553 128.123 32.5358C127.468 33.4929 126.498 34.2558 125.215 34.8248C123.957 35.368 122.437 35.6396 120.655 35.6396ZM151.782 14.4566C152.594 14.767 153 15.2713 153 15.9697C153 16.2283 152.921 16.5387 152.764 16.9008L140.738 43.5929C140.423 44.3947 139.912 44.7956 139.205 44.7956C138.943 44.7956 138.628 44.718 138.262 44.5628C137.476 44.2265 137.083 43.7222 137.083 43.0497C137.083 42.7394 137.161 42.429 137.318 42.1186L141.249 33.3894L132.406 16.8232C132.275 16.5904 132.209 16.3188 132.209 16.0085C132.209 15.6722 132.314 15.3618 132.523 15.0773C132.733 14.7928 133.008 14.573 133.349 14.4178C133.585 14.3143 133.847 14.2626 134.135 14.2626C134.869 14.2626 135.419 14.6247 135.786 15.3489L142.978 29.4709L149.306 15.3877C149.646 14.6376 150.157 14.2626 150.838 14.2626C151.179 14.2626 151.493 14.3273 151.782 14.4566Z" fill="#33475B"/>
<path fill-rule="evenodd" clip-rule="evenodd" d="M7.27945 0C4.8731 0 3.31048 -4.33889e-08 2.22394 0.367601C1.76104 0.524215 1.38455 0.747558 1.06606 1.06605C4.16534e-06 2.1321 4.12055e-06 3.84788 0 7.27945L4.12055e-06 23.339C0.232114 23.1903 0.476857 23.0342 0.734528 22.8697L0.734808 22.8695L10.9731 16.3343C11.5872 15.9422 11.8944 15.7462 12.2175 15.6444C12.7242 15.4847 13.2704 15.4847 13.7773 15.6444C14.1002 15.7461 14.4072 15.9421 15.021 16.3339L15.0211 16.3339L15.0216 16.3343L21.3819 20.3941C22.272 20.9623 23.4586 20.3453 23.4586 19.3142C23.4586 18.4956 23.4586 18.0863 23.6972 17.8141C23.733 17.7734 23.772 17.7356 23.814 17.7011C24.0957 17.4703 24.5192 17.4703 25.3662 17.4703C26.2129 17.4703 26.6364 17.4703 26.918 17.7011C26.9602 17.7356 26.9991 17.7734 27.035 17.8141C27.2736 18.0863 27.2736 18.4956 27.2736 19.3142V23.4013C27.2736 23.8819 27.5209 24.3288 27.9234 24.6111C28.764 25.2005 29.2412 25.6259 29.4073 26.0069C29.876 27.0819 29.4891 28.3273 28.485 28.9746C27.469 29.6299 26.1179 28.9493 25.1121 28.2792C24.0819 27.5926 22.8802 26.8255 21.5148 25.954L21.5144 25.9538L21.5015 25.9454L15.7864 22.2975C14.4416 21.4391 13.7692 21.01 13.0135 21.01C12.2576 21.01 11.5852 21.4391 10.2405 22.2975L4.52543 25.9454L4.52432 25.9461L4.524 25.9463C3.16363 26.8148 1.96558 27.5795 0.937193 28.2641C0.6477 28.4568 0.33007 28.6508 4.12055e-06 28.8148L0 37.4892C0 39.6339 0 41.1083 0.260266 42.173C0.416426 42.8117 0.666283 43.3027 1.06605 43.7025C1.33256 43.9692 1.63969 44.169 2.00407 44.3189C3.09722 44.7686 4.70578 44.7686 7.27945 44.7686H37.4892C37.7037 44.7686 37.9114 44.7686 38.1127 44.7684C41.1327 44.7644 42.7031 44.702 43.7025 43.7025C43.9692 43.4361 44.169 43.1289 44.3189 42.7646C44.7686 41.6714 44.7686 40.0628 44.7686 37.4892V7.27945C44.7686 3.84788 44.7686 2.1321 43.7025 1.06605C42.6365 0 40.9207 0 37.4892 0H7.27945Z" fill="#F09E21"/>
</svg>
